<svg width="350" height="322" viewBox="0 0 350 322" fill="none" xmlns="http://www.w3.org/2000/svg">
<path d="M139 12.5L120.489 132.5L11 170.079L120.489 208.832L97.8358 311L177.121 237.017L297.936 268.724L237.528 194.74L305.487 113.711L191.603 124L139 12.5Z" fill="#3C1E5E" stroke="#120039" stroke-width="7"/>
<g clip-path="url(#paint0_diamond_2_38_clip_path)" data-figma-skip-parse="true"><g transform="matrix(0.00598205 0.022893 -0.0348641 0.00914237 309.154 155.867)"><rect x="0" y="0" width="1042.26" height="1027.74" fill="url(#paint0_diamond_2_38)" opacity="1" shape-rendering="crispEdges"/><rect x="0" y="0" width="1042.26" height="1027.74" transform="scale(1 -1)" fill="url(#paint0_diamond_2_38)" opacity="1" shape-rendering="crispEdges"/><rect x="0" y="0" width="1042.26" height="1027.74" transform="scale(-1 1)" fill="url(#paint0_diamond_2_38)" opacity="1" shape-rendering="crispEdges"/><rect x="0" y="0" width="1042.26" height="1027.74" transform="scale(-1)" fill="url(#paint0_diamond_2_38)" opacity="1" shape-rendering="crispEdges"/></g></g><path d="M305.679 139.042C303.543 139.602 300.51 142.771 296.579 148.549C292.626 154.245 290.779 157.586 291.037 158.574C291.08 158.738 291.225 158.788 291.471 158.724C293.278 158.25 296.324 155.297 300.609 149.866C304.976 144.413 306.966 140.946 306.579 139.465C306.472 139.054 306.172 138.913 305.679 139.042ZM289.758 185.415C283.434 187.073 279.261 184.035 277.24 176.302C275.972 171.447 276.723 165.756 279.492 159.227C282.323 152.595 286.161 146.797 291.007 141.834C295.832 136.789 300.461 133.685 304.896 132.522C306.868 132.005 308.879 132.313 310.93 133.445C313.063 134.556 314.323 135.852 314.71 137.333C315.42 140.048 314.296 143.639 311.339 148.107C308.36 152.493 305.015 156.315 301.303 159.574C297.652 162.729 295.128 164.49 293.732 164.856C292.418 165.201 291.271 164.842 290.291 163.78C289.898 163.62 289.414 163.615 288.84 163.765C288.265 163.916 287.61 165.275 286.877 167.841C286.122 170.324 285.927 172.265 286.292 173.664C286.636 174.981 287.344 175.674 288.416 175.745C294.657 174.108 300.96 170.521 307.324 164.984C313.666 159.365 322.08 150.257 332.567 137.661C333.298 136.766 334.395 135.424 335.858 133.633C337.403 131.822 338.308 130.749 338.572 130.416C339.461 130.798 340.014 131.401 340.229 132.224C340.444 133.046 340.268 133.884 339.701 134.736C336.669 139.926 332.534 145.934 327.297 152.758C322.142 159.56 315.936 166.374 308.681 173.2C301.404 179.943 295.096 184.015 289.758 185.415Z" data-figma-gradient-fill="{&#34;type&#34;:&#34;GRADIENT_DIAMOND&#34;,&#34;stops&#34;:[{&#34;color&#34;:{&#34;r&#34;:1.0,&#34;g&#34;:1.0,&#34;b&#34;:1.0,&#34;a&#34;:1.0},&#34;position&#34;:0.0},{&#34;color&#34;:{&#34;r&#34;:0.68028843402862549,&#34;g&#34;:0.68028843402862549,&#34;b&#34;:0.68028843402862549,&#34;a&#34;:1.0},&#34;position&#34;:1.0}],&#34;stopsVar&#34;:[{&#34;color&#34;:{&#34;r&#34;:1.0,&#34;g&#34;:1.0,&#34;b&#34;:1.0,&#34;a&#34;:1.0},&#34;position&#34;:0.0},{&#34;color&#34;:{&#34;r&#34;:0.68028843402862549,&#34;g&#34;:0.68028843402862549,&#34;b&#34;:0.68028843402862549,&#34;a&#34;:1.0},&#34;position&#34;:1.0}],&#34;transform&#34;:{&#34;m00&#34;:11.964098930358887,&#34;m01&#34;:-69.728240966796875,&#34;m02&#34;:338.0358886718750,&#34;m10&#34;:45.785972595214844,&#34;m11&#34;:18.284732818603516,&#34;m12&#34;:123.83160400390625},&#34;opacity&#34;:1.0,&#34;blendMode&#34;:&#34;NORMAL&#34;,&#34;visible&#34;:true}"/>
<g clip-path="url(#paint1_diamond_2_38_clip_path)" data-figma-skip-parse="true"><g transform="matrix(0.00585306 0.0223993 -0.0409623 0.0107415 254.856 172.479)"><rect x="0" y="0" width="1043.19" height="1023.61" fill="url(#paint1_diamond_2_38)" opacity="1" shape-rendering="crispEdges"/><rect x="0" y="0" width="1043.19" height="1023.61" transform="scale(1 -1)" fill="url(#paint1_diamond_2_38)" opacity="1" shape-rendering="crispEdges"/><rect x="0" y="0" width="1043.19" height="1023.61" transform="scale(-1 1)" fill="url(#paint1_diamond_2_38)" opacity="1" shape-rendering="crispEdges"/><rect x="0" y="0" width="1043.19" height="1023.61" transform="scale(-1)" fill="url(#paint1_diamond_2_38)" opacity="1" shape-rendering="crispEdges"/></g></g><path d="M236.868 153.262C237.525 153.089 238.679 153.139 240.329 153.409C242.062 153.658 243.035 154.194 243.25 155.017C243.401 155.593 243.346 156.222 243.086 156.906L237.2 172.164C236.476 173.76 236.136 174.641 236.179 174.805C236.222 174.97 236.284 175.041 236.367 175.02L236.886 174.488C244.671 165.325 250.988 157.427 255.837 150.793C256.772 149.669 257.609 149.01 258.348 148.816C259.169 148.601 259.724 148.543 260.014 148.643L263.721 148.726C264.65 148.922 265.2 149.349 265.372 150.007C265.544 150.665 265.52 151.243 265.299 151.74C264.19 153.877 262.899 156.326 261.426 159.086C260.014 161.742 258.966 163.775 258.281 165.185C257.575 166.513 256.789 168.038 255.922 169.76C255.056 171.482 254.432 172.788 254.05 173.679C253.751 174.549 253.402 175.564 253.003 176.723C252.582 177.8 252.335 178.701 252.261 179.423C252.262 181.445 252.446 183.155 252.811 184.554C253.005 185.294 253.553 185.546 254.457 185.309C255.442 185.051 257.016 184.022 259.179 182.224C261.424 180.405 263.96 177.85 266.786 174.559C269.694 171.247 273.453 166.657 278.063 160.789C282.733 154.817 286.847 149.738 290.404 145.553C291.294 145.935 291.846 146.537 292.061 147.36C292.276 148.183 292.1 149.02 291.533 149.872C289.571 153.112 287.083 157.193 284.069 162.115C281.034 166.955 276.207 173.671 269.589 182.264C263.053 190.835 258.142 195.551 254.857 196.413C248.533 198.071 244.49 195.527 242.727 188.781C242.06 186.23 242.347 183.298 243.587 179.983L246.982 171.313C247.281 170.443 247.42 169.967 247.399 169.885C247.356 169.72 247.142 169.908 246.756 170.449C235.583 186.126 228.294 195.51 224.889 198.601C224.34 199.185 223.572 199.606 222.587 199.864C219.876 200.575 218.199 199.696 217.554 197.228C217.339 196.405 217.35 195.611 217.589 194.845C222.205 187.656 225.282 181.97 226.822 177.786C228.277 175.295 229.61 172 230.821 167.902C232.114 163.783 233.199 160.378 234.075 157.686C235.034 154.974 235.965 153.499 236.868 153.262Z" data-figma-gradient-fill="{&#34;type&#34;:&#34;GRADIENT_DIAMOND&#34;,&#34;stops&#34;:[{&#34;color&#34;:{&#34;r&#34;:1.0,&#34;g&#34;:1.0,&#34;b&#34;:1.0,&#34;a&#34;:1.0},&#34;position&#34;:0.0},{&#34;color&#34;:{&#34;r&#34;:0.68028843402862549,&#34;g&#34;:0.68028843402862549,&#34;b&#34;:0.68028843402862549,&#34;a&#34;:1.0},&#34;position&#34;:1.0}],&#34;stopsVar&#34;:[{&#34;color&#34;:{&#34;r&#34;:1.0,&#34;g&#34;:1.0,&#34;b&#34;:1.0,&#34;a&#34;:1.0},&#34;position&#34;:0.0},{&#34;color&#34;:{&#34;r&#34;:0.68028843402862549,&#34;g&#34;:0.68028843402862549,&#34;b&#34;:0.68028843402862549,&#34;a&#34;:1.0},&#34;position&#34;:1.0}],&#34;transform&#34;:{&#34;m00&#34;:11.706110954284668,&#34;m01&#34;:-81.924530029296875,&#34;m02&#34;:289.96496582031250,&#34;m10&#34;:44.798667907714844,&#34;m11&#34;:21.482946395874023,&#34;m12&#34;:139.33822631835938},&#34;opacity&#34;:1.0,&#34;blendMode&#34;:&#34;NORMAL&#34;,&#34;visible&#34;:true}"/>
<g clip-path="url(#paint2_diamond_2_38_clip_path)" data-figma-skip-parse="true"><g transform="matrix(0.00827167 0.0316553 -0.0305523 0.00801168 208.707 172.844)"><rect x="0" y="0" width="1030.56" height="1031.66" fill="url(#paint2_diamond_2_38)" opacity="1" shape-rendering="crispEdges"/><rect x="0" y="0" width="1030.56" height="1031.66" transform="scale(1 -1)" fill="url(#paint2_diamond_2_38)" opacity="1" shape-rendering="crispEdges"/><rect x="0" y="0" width="1030.56" height="1031.66" transform="scale(-1 1)" fill="url(#paint2_diamond_2_38)" opacity="1" shape-rendering="crispEdges"/><rect x="0" y="0" width="1030.56" height="1031.66" transform="scale(-1)" fill="url(#paint2_diamond_2_38)" opacity="1" shape-rendering="crispEdges"/></g></g><path d="M210.907 138.443C211.728 138.228 212.305 138.252 212.637 138.517C214.152 139.614 215.028 140.615 215.265 141.52C215.48 142.343 215.427 143.148 215.106 143.935C214.764 144.64 214.331 145.501 213.806 146.518C213.343 147.431 212.226 148.866 210.456 150.825C208.747 152.68 206.907 153.866 204.936 154.383C203.393 154.523 202.417 153.812 202.009 152.249C201.364 149.781 202.219 147.007 204.573 143.928C206.907 140.767 209.018 138.938 210.907 138.443ZM194.046 194.821C193.69 196.145 193.63 197.26 193.866 198.165C194.103 199.07 194.714 199.393 195.699 199.134C196.274 198.984 197.195 198.478 198.463 197.619C211.714 185.528 224.261 172.084 236.103 157.287C236.992 157.669 237.544 158.271 237.759 159.094C237.974 159.917 237.768 160.806 237.14 161.762C236.512 162.718 235.601 164.1 234.406 165.907C233.293 167.694 231.074 170.957 227.75 175.697C224.425 180.437 221.301 184.772 218.38 188.704C210.731 199.061 204.789 205.542 200.555 208.147C199.185 208.946 197.637 209.571 195.912 210.024C189.588 211.682 185.545 209.138 183.782 202.391C183.094 199.759 183.553 195.638 185.159 190.03C186.744 184.34 188.572 179.245 190.643 174.746C192.693 170.164 194.157 167.539 195.035 166.869C196.277 165.576 197.76 164.704 199.485 164.252C201.209 163.799 202.938 163.698 204.67 163.947C205.228 164.064 205.56 164.329 205.668 164.74C205.775 165.151 205.526 165.876 204.919 166.914C204.395 167.931 203.538 169.518 202.346 171.677C201.237 173.814 199.64 177.442 197.555 182.56C195.531 187.574 194.361 191.661 194.046 194.821Z" data-figma-gradient-fill="{&#34;type&#34;:&#34;GRADIENT_DIAMOND&#34;,&#34;stops&#34;:[{&#34;color&#34;:{&#34;r&#34;:1.0,&#34;g&#34;:1.0,&#34;b&#34;:1.0,&#34;a&#34;:1.0},&#34;position&#34;:0.0},{&#34;color&#34;:{&#34;r&#34;:0.68028843402862549,&#34;g&#34;:0.68028843402862549,&#34;b&#34;:0.68028843402862549,&#34;a&#34;:1.0},&#34;position&#34;:1.0}],&#34;stopsVar&#34;:[{&#34;color&#34;:{&#34;r&#34;:1.0,&#34;g&#34;:1.0,&#34;b&#34;:1.0,&#34;a&#34;:1.0},&#34;position&#34;:0.0},{&#34;color&#34;:{&#34;r&#34;:0.68028843402862549,&#34;g&#34;:0.68028843402862549,&#34;b&#34;:0.68028843402862549,&#34;a&#34;:1.0},&#34;position&#34;:1.0}],&#34;transform&#34;:{&#34;m00&#34;:16.543350219726562,&#34;m01&#34;:-61.104602813720703,&#34;m02&#34;:230.98735046386719,&#34;m10&#34;:63.310523986816406,&#34;m11&#34;:16.023368835449219,&#34;m12&#34;:133.17738342285156},&#34;opacity&#34;:1.0,&#34;blendMode&#34;:&#34;NORMAL&#34;,&#34;visible&#34;:true}"/>
<g clip-path="url(#paint3_diamond_2_38_clip_path)" data-figma-skip-parse="true"><g transform="matrix(0.0101582 0.0388749 -0.0348641 0.00914237 172.683 174.577)"><rect x="0" y="0" width="1024.89" height="1027.74" fill="url(#paint3_diamond_2_38)" opacity="1" shape-rendering="crispEdges"/><rect x="0" y="0" width="1024.89" height="1027.74" transform="scale(1 -1)" fill="url(#paint3_diamond_2_38)" opacity="1" shape-rendering="crispEdges"/><rect x="0" y="0" width="1024.89" height="1027.74" transform="scale(-1 1)" fill="url(#paint3_diamond_2_38)" opacity="1" shape-rendering="crispEdges"/><rect x="0" y="0" width="1024.89" height="1027.74" transform="scale(-1)" fill="url(#paint3_diamond_2_38)" opacity="1" shape-rendering="crispEdges"/></g></g><path d="M157.464 209.029C160.175 208.318 164.879 204.491 171.577 197.548C178.357 190.583 184.398 183.812 189.7 177.235L197.777 167.337C198.666 167.719 199.219 168.321 199.434 169.144C199.648 169.967 199.442 170.856 198.814 171.812C198.186 172.768 197.275 174.15 196.08 175.958C194.967 177.744 192.748 181.007 189.424 185.747C186.099 190.487 182.975 194.823 180.054 198.754C172.405 209.111 166.463 215.592 162.229 218.197C160.859 218.996 159.393 219.6 157.832 220.009C156.272 220.419 155.008 220.618 154.04 220.608C153.072 220.598 151.947 220.322 150.664 219.779C148.056 218.529 145.935 214.778 144.301 208.525C143.849 206.797 143.9 203.97 144.454 200.045C145.008 196.119 146.313 191.206 148.369 185.304C150.507 179.381 153.179 173.317 156.385 167.114C159.672 160.889 164.151 154.352 169.821 147.503C175.572 140.632 182.023 134.589 189.173 129.373C190.297 128.639 191.352 128.142 192.338 127.884C193.323 127.625 194.345 127.841 195.403 128.531C196.439 129.138 197.24 129.851 197.805 130.67L198.743 131.743C199.238 133.635 197.408 138.554 193.253 146.501C188.999 154.737 183.726 162.934 177.432 171.089C171.199 179.142 165.274 186.19 159.658 192.234C155.101 197.297 153.338 201.803 154.37 205.752C155.037 208.303 156.068 209.395 157.464 209.029ZM161.876 180.575C163.93 180.037 168.808 173.351 176.512 160.517C184.298 147.662 188.041 140.659 187.74 139.507L187.552 139.293L185.716 140.829C182.176 144.746 177.715 151.015 172.333 159.635C167.033 168.234 163.522 174.781 161.8 179.276C161.579 179.774 161.501 180.146 161.566 180.393C161.609 180.557 161.712 180.618 161.876 180.575Z" data-figma-gradient-fill="{&#34;type&#34;:&#34;GRADIENT_DIAMOND&#34;,&#34;stops&#34;:[{&#34;color&#34;:{&#34;r&#34;:1.0,&#34;g&#34;:1.0,&#34;b&#34;:1.0,&#34;a&#34;:1.0},&#34;position&#34;:0.0},{&#34;color&#34;:{&#34;r&#34;:0.68028843402862549,&#34;g&#34;:0.68028843402862549,&#34;b&#34;:0.68028843402862549,&#34;a&#34;:1.0},&#34;position&#34;:1.0}],&#34;stopsVar&#34;:[{&#34;color&#34;:{&#34;r&#34;:1.0,&#34;g&#34;:1.0,&#34;b&#34;:1.0,&#34;a&#34;:1.0},&#34;position&#34;:0.0},{&#34;color&#34;:{&#34;r&#34;:0.68028843402862549,&#34;g&#34;:0.68028843402862549,&#34;b&#34;:0.68028843402862549,&#34;a&#34;:1.0},&#34;position&#34;:1.0}],&#34;transform&#34;:{&#34;m00&#34;:20.316394805908203,&#34;m01&#34;:-69.728248596191406,&#34;m02&#34;:197.38877868652344,&#34;m10&#34;:77.749771118164062,&#34;m11&#34;:18.284734725952148,&#34;m12&#34;:126.55931854248047},&#34;opacity&#34;:1.0,&#34;blendMode&#34;:&#34;NORMAL&#34;,&#34;visible&#34;:true}"/>
<g clip-path="url(#paint4_diamond_2_38_clip_path)" data-figma-skip-parse="true"><g transform="matrix(0.00598205 0.022893 -0.0348641 0.00914237 130.136 202.81)"><rect x="0" y="0" width="1042.26" height="1027.74" fill="url(#paint4_diamond_2_38)" opacity="1" shape-rendering="crispEdges"/><rect x="0" y="0" width="1042.26" height="1027.74" transform="scale(1 -1)" fill="url(#paint4_diamond_2_38)" opacity="1" shape-rendering="crispEdges"/><rect x="0" y="0" width="1042.26" height="1027.74" transform="scale(-1 1)" fill="url(#paint4_diamond_2_38)" opacity="1" shape-rendering="crispEdges"/><rect x="0" y="0" width="1042.26" height="1027.74" transform="scale(-1)" fill="url(#paint4_diamond_2_38)" opacity="1" shape-rendering="crispEdges"/></g></g><path d="M126.661 185.985C124.526 186.545 121.493 189.714 117.562 195.492C113.609 201.188 111.762 204.53 112.02 205.517C112.063 205.682 112.207 205.732 112.454 205.667C114.261 205.193 117.307 202.241 121.592 196.809C125.959 191.356 127.949 187.89 127.562 186.409C127.454 185.997 127.154 185.856 126.661 185.985ZM110.74 232.358C104.416 234.017 100.244 230.979 98.223 223.245C96.9545 218.391 97.7052 212.699 100.475 206.171C103.305 199.539 107.143 193.741 111.99 188.778C116.814 183.732 121.444 180.628 125.879 179.465C127.85 178.948 129.861 179.256 131.912 180.389C134.046 181.5 135.306 182.795 135.693 184.276C136.402 186.991 135.278 190.583 132.321 195.051C129.342 199.436 125.997 203.258 122.285 206.518C118.634 209.673 116.111 211.433 114.714 211.8C113.4 212.144 112.254 211.786 111.274 210.724C110.881 210.563 110.397 210.558 109.822 210.709C109.247 210.86 108.593 212.218 107.859 214.784C107.104 217.268 106.909 219.209 107.275 220.608C107.619 221.924 108.327 222.618 109.398 222.688C115.64 221.051 121.943 217.465 128.306 211.928C134.649 206.309 143.063 197.201 153.549 184.605C154.281 183.71 155.378 182.367 156.841 180.577C158.386 178.765 159.29 177.693 159.554 177.36C160.444 177.742 160.996 178.344 161.211 179.167C161.426 179.99 161.25 180.827 160.683 181.679C157.651 186.87 153.517 192.877 148.28 199.701C143.124 206.504 136.919 213.318 129.663 220.143C122.386 226.887 116.079 230.958 110.74 232.358Z" data-figma-gradient-fill="{&#34;type&#34;:&#34;GRADIENT_DIAMOND&#34;,&#34;stops&#34;:[{&#34;color&#34;:{&#34;r&#34;:1.0,&#34;g&#34;:1.0,&#34;b&#34;:1.0,&#34;a&#34;:1.0},&#34;position&#34;:0.0},{&#34;color&#34;:{&#34;r&#34;:0.68028843402862549,&#34;g&#34;:0.68028843402862549,&#34;b&#34;:0.68028843402862549,&#34;a&#34;:1.0},&#34;position&#34;:1.0}],&#34;stopsVar&#34;:[{&#34;color&#34;:{&#34;r&#34;:1.0,&#34;g&#34;:1.0,&#34;b&#34;:1.0,&#34;a&#34;:1.0},&#34;position&#34;:0.0},{&#34;color&#34;:{&#34;r&#34;:0.68028843402862549,&#34;g&#34;:0.68028843402862549,&#34;b&#34;:0.68028843402862549,&#34;a&#34;:1.0},&#34;position&#34;:1.0}],&#34;transform&#34;:{&#34;m00&#34;:11.964098930358887,&#34;m01&#34;:-69.728240966796875,&#34;m02&#34;:159.01843261718750,&#34;m10&#34;:45.785972595214844,&#34;m11&#34;:18.284732818603516,&#34;m12&#34;:170.77508544921875},&#34;opacity&#34;:1.0,&#34;blendMode&#34;:&#34;NORMAL&#34;,&#34;visible&#34;:true}"/>
<g clip-path="url(#paint5_diamond_2_38_clip_path)" data-figma-skip-parse="true"><g transform="matrix(0.0116094 0.0444284 -0.0504483 0.013229 75.6702 197.51)"><rect x="0" y="0" width="1021.78" height="1019.17" fill="url(#paint5_diamond_2_38)" opacity="1" shape-rendering="crispEdges"/><rect x="0" y="0" width="1021.78" height="1019.17" transform="scale(1 -1)" fill="url(#paint5_diamond_2_38)" opacity="1" shape-rendering="crispEdges"/><rect x="0" y="0" width="1021.78" height="1019.17" transform="scale(-1 1)" fill="url(#paint5_diamond_2_38)" opacity="1" shape-rendering="crispEdges"/><rect x="0" y="0" width="1021.78" height="1019.17" transform="scale(-1)" fill="url(#paint5_diamond_2_38)" opacity="1" shape-rendering="crispEdges"/></g></g><path d="M30.8331 232.213C28.9158 224.54 29.5319 215.983 32.6814 206.542C35.8914 196.997 40.6432 188.146 46.9368 179.99C53.2088 171.752 60.6442 164.44 69.243 158.053C77.8202 151.584 86.3385 147.24 94.7979 145.022C99.6436 143.751 104.388 143.606 109.032 144.586C113.737 145.462 116.627 147.957 117.702 152.071C118.755 156.102 117.565 161.118 114.13 167.117C110.756 173.013 106.266 178.498 100.659 183.573C95.113 188.544 89.9171 191.665 85.0714 192.935C82.8539 193.517 80.393 193.503 77.6888 192.893C74.9845 192.284 73.3422 190.868 72.7617 188.647C72.4392 187.413 73.1453 186.085 74.8799 184.663C81.13 180.035 85.6768 175.941 88.5205 172.382C89.0446 171.366 89.471 170.815 89.7995 170.728C90.2102 170.621 90.5015 170.896 90.6735 171.554C90.9745 172.706 89.933 174.43 87.549 176.725C85.9649 178.723 85.1943 179.804 85.2373 179.969C85.2803 180.133 85.3429 180.205 85.425 180.183C87.0676 179.752 91.2498 175.271 97.9717 166.739C104.694 158.207 107.818 153.036 107.345 151.226C107.044 150.074 105.785 149.789 103.567 150.371C95.6828 152.438 88.1696 156.43 81.0277 162.347C73.8643 168.182 67.8623 174.767 63.0217 182.102C58.2417 189.333 54.1334 196.784 50.6968 204.455C47.2386 212.043 44.8639 218.908 43.5725 225.048C42.2597 231.107 41.9902 235.617 42.7642 238.579C43.2372 240.389 44.336 241.068 46.0607 240.616C47.5391 240.228 50.3238 238.795 54.4148 236.315C58.5058 233.836 64.224 229.523 71.5693 223.377C78.9967 217.21 85.8914 210.347 92.2533 202.788C92.6992 202.144 93.0043 201.8 93.1686 201.757C93.415 201.693 93.5812 201.825 93.6671 202.154C93.7531 202.483 93.3795 204.075 92.5461 206.931C91.7948 209.766 90.4031 213.34 88.3709 217.653C86.4208 221.944 84.0385 226.261 81.2241 230.604C78.3883 234.864 74.6539 238.876 70.021 242.64C65.4703 246.383 60.9775 248.836 56.5425 249.999C52.1896 251.141 48.5359 251.263 45.5814 250.368C42.709 249.451 40.3969 247.991 38.6451 245.989C35.0594 242.006 32.7007 238.185 31.569 234.526L30.8331 232.213Z" data-figma-gradient-fill="{&#34;type&#34;:&#34;GRADIENT_DIAMOND&#34;,&#34;stops&#34;:[{&#34;color&#34;:{&#34;r&#34;:1.0,&#34;g&#34;:1.0,&#34;b&#34;:1.0,&#34;a&#34;:1.0},&#34;position&#34;:0.0},{&#34;color&#34;:{&#34;r&#34;:0.68028843402862549,&#34;g&#34;:0.68028843402862549,&#34;b&#34;:0.68028843402862549,&#34;a&#34;:1.0},&#34;position&#34;:1.0}],&#34;stopsVar&#34;:[{&#34;color&#34;:{&#34;r&#34;:1.0,&#34;g&#34;:1.0,&#34;b&#34;:1.0,&#34;a&#34;:1.0},&#34;position&#34;:0.0},{&#34;color&#34;:{&#34;r&#34;:0.68028843402862549,&#34;g&#34;:0.68028843402862549,&#34;b&#34;:0.68028843402862549,&#34;a&#34;:1.0},&#34;position&#34;:1.0}],&#34;transform&#34;:{&#34;m00&#34;:23.218736648559570,&#34;m01&#34;:-100.89653778076172,&#34;m02&#34;:114.50908660888672,&#34;m10&#34;:88.856872558593750,&#34;m11&#34;:26.457946777343750,&#34;m12&#34;:139.85308837890625},&#34;opacity&#34;:1.0,&#34;blendMode&#34;:&#34;NORMAL&#34;,&#34;visible&#34;:true}"/>
<defs>
<clipPath id="paint0_diamond_2_38_clip_path"><path d="M305.679 139.042C303.543 139.602 300.51 142.771 296.579 148.549C292.626 154.245 290.779 157.586 291.037 158.574C291.08 158.738 291.225 158.788 291.471 158.724C293.278 158.25 296.324 155.297 300.609 149.866C304.976 144.413 306.966 140.946 306.579 139.465C306.472 139.054 306.172 138.913 305.679 139.042ZM289.758 185.415C283.434 187.073 279.261 184.035 277.24 176.302C275.972 171.447 276.723 165.756 279.492 159.227C282.323 152.595 286.161 146.797 291.007 141.834C295.832 136.789 300.461 133.685 304.896 132.522C306.868 132.005 308.879 132.313 310.93 133.445C313.063 134.556 314.323 135.852 314.71 137.333C315.42 140.048 314.296 143.639 311.339 148.107C308.36 152.493 305.015 156.315 301.303 159.574C297.652 162.729 295.128 164.49 293.732 164.856C292.418 165.201 291.271 164.842 290.291 163.78C289.898 163.62 289.414 163.615 288.84 163.765C288.265 163.916 287.61 165.275 286.877 167.841C286.122 170.324 285.927 172.265 286.292 173.664C286.636 174.981 287.344 175.674 288.416 175.745C294.657 174.108 300.96 170.521 307.324 164.984C313.666 159.365 322.08 150.257 332.567 137.661C333.298 136.766 334.395 135.424 335.858 133.633C337.403 131.822 338.308 130.749 338.572 130.416C339.461 130.798 340.014 131.401 340.229 132.224C340.444 133.046 340.268 133.884 339.701 134.736C336.669 139.926 332.534 145.934 327.297 152.758C322.142 159.56 315.936 166.374 308.681 173.2C301.404 179.943 295.096 184.015 289.758 185.415Z"/></clipPath><clipPath id="paint1_diamond_2_38_clip_path"><path d="M236.868 153.262C237.525 153.089 238.679 153.139 240.329 153.409C242.062 153.658 243.035 154.194 243.25 155.017C243.401 155.593 243.346 156.222 243.086 156.906L237.2 172.164C236.476 173.76 236.136 174.641 236.179 174.805C236.222 174.97 236.284 175.041 236.367 175.02L236.886 174.488C244.671 165.325 250.988 157.427 255.837 150.793C256.772 149.669 257.609 149.01 258.348 148.816C259.169 148.601 259.724 148.543 260.014 148.643L263.721 148.726C264.65 148.922 265.2 149.349 265.372 150.007C265.544 150.665 265.52 151.243 265.299 151.74C264.19 153.877 262.899 156.326 261.426 159.086C260.014 161.742 258.966 163.775 258.281 165.185C257.575 166.513 256.789 168.038 255.922 169.76C255.056 171.482 254.432 172.788 254.05 173.679C253.751 174.549 253.402 175.564 253.003 176.723C252.582 177.8 252.335 178.701 252.261 179.423C252.262 181.445 252.446 183.155 252.811 184.554C253.005 185.294 253.553 185.546 254.457 185.309C255.442 185.051 257.016 184.022 259.179 182.224C261.424 180.405 263.96 177.85 266.786 174.559C269.694 171.247 273.453 166.657 278.063 160.789C282.733 154.817 286.847 149.738 290.404 145.553C291.294 145.935 291.846 146.537 292.061 147.36C292.276 148.183 292.1 149.02 291.533 149.872C289.571 153.112 287.083 157.193 284.069 162.115C281.034 166.955 276.207 173.671 269.589 182.264C263.053 190.835 258.142 195.551 254.857 196.413C248.533 198.071 244.49 195.527 242.727 188.781C242.06 186.23 242.347 183.298 243.587 179.983L246.982 171.313C247.281 170.443 247.42 169.967 247.399 169.885C247.356 169.72 247.142 169.908 246.756 170.449C235.583 186.126 228.294 195.51 224.889 198.601C224.34 199.185 223.572 199.606 222.587 199.864C219.876 200.575 218.199 199.696 217.554 197.228C217.339 196.405 217.35 195.611 217.589 194.845C222.205 187.656 225.282 181.97 226.822 177.786C228.277 175.295 229.61 172 230.821 167.902C232.114 163.783 233.199 160.378 234.075 157.686C235.034 154.974 235.965 153.499 236.868 153.262Z"/></clipPath><clipPath id="paint2_diamond_2_38_clip_path"><path d="M210.907 138.443C211.728 138.228 212.305 138.252 212.637 138.517C214.152 139.614 215.028 140.615 215.265 141.52C215.48 142.343 215.427 143.148 215.106 143.935C214.764 144.64 214.331 145.501 213.806 146.518C213.343 147.431 212.226 148.866 210.456 150.825C208.747 152.68 206.907 153.866 204.936 154.383C203.393 154.523 202.417 153.812 202.009 152.249C201.364 149.781 202.219 147.007 204.573 143.928C206.907 140.767 209.018 138.938 210.907 138.443ZM194.046 194.821C193.69 196.145 193.63 197.26 193.866 198.165C194.103 199.07 194.714 199.393 195.699 199.134C196.274 198.984 197.195 198.478 198.463 197.619C211.714 185.528 224.261 172.084 236.103 157.287C236.992 157.669 237.544 158.271 237.759 159.094C237.974 159.917 237.768 160.806 237.14 161.762C236.512 162.718 235.601 164.1 234.406 165.907C233.293 167.694 231.074 170.957 227.75 175.697C224.425 180.437 221.301 184.772 218.38 188.704C210.731 199.061 204.789 205.542 200.555 208.147C199.185 208.946 197.637 209.571 195.912 210.024C189.588 211.682 185.545 209.138 183.782 202.391C183.094 199.759 183.553 195.638 185.159 190.03C186.744 184.34 188.572 179.245 190.643 174.746C192.693 170.164 194.157 167.539 195.035 166.869C196.277 165.576 197.76 164.704 199.485 164.252C201.209 163.799 202.938 163.698 204.67 163.947C205.228 164.064 205.56 164.329 205.668 164.74C205.775 165.151 205.526 165.876 204.919 166.914C204.395 167.931 203.538 169.518 202.346 171.677C201.237 173.814 199.64 177.442 197.555 182.56C195.531 187.574 194.361 191.661 194.046 194.821Z"/></clipPath><clipPath id="paint3_diamond_2_38_clip_path"><path d="M157.464 209.029C160.175 208.318 164.879 204.491 171.577 197.548C178.357 190.583 184.398 183.812 189.7 177.235L197.777 167.337C198.666 167.719 199.219 168.321 199.434 169.144C199.648 169.967 199.442 170.856 198.814 171.812C198.186 172.768 197.275 174.15 196.08 175.958C194.967 177.744 192.748 181.007 189.424 185.747C186.099 190.487 182.975 194.823 180.054 198.754C172.405 209.111 166.463 215.592 162.229 218.197C160.859 218.996 159.393 219.6 157.832 220.009C156.272 220.419 155.008 220.618 154.04 220.608C153.072 220.598 151.947 220.322 150.664 219.779C148.056 218.529 145.935 214.778 144.301 208.525C143.849 206.797 143.9 203.97 144.454 200.045C145.008 196.119 146.313 191.206 148.369 185.304C150.507 179.381 153.179 173.317 156.385 167.114C159.672 160.889 164.151 154.352 169.821 147.503C175.572 140.632 182.023 134.589 189.173 129.373C190.297 128.639 191.352 128.142 192.338 127.884C193.323 127.625 194.345 127.841 195.403 128.531C196.439 129.138 197.24 129.851 197.805 130.67L198.743 131.743C199.238 133.635 197.408 138.554 193.253 146.501C188.999 154.737 183.726 162.934 177.432 171.089C171.199 179.142 165.274 186.19 159.658 192.234C155.101 197.297 153.338 201.803 154.37 205.752C155.037 208.303 156.068 209.395 157.464 209.029ZM161.876 180.575C163.93 180.037 168.808 173.351 176.512 160.517C184.298 147.662 188.041 140.659 187.74 139.507L187.552 139.293L185.716 140.829C182.176 144.746 177.715 151.015 172.333 159.635C167.033 168.234 163.522 174.781 161.8 179.276C161.579 179.774 161.501 180.146 161.566 180.393C161.609 180.557 161.712 180.618 161.876 180.575Z"/></clipPath><clipPath id="paint4_diamond_2_38_clip_path"><path d="M126.661 185.985C124.526 186.545 121.493 189.714 117.562 195.492C113.609 201.188 111.762 204.53 112.02 205.517C112.063 205.682 112.207 205.732 112.454 205.667C114.261 205.193 117.307 202.241 121.592 196.809C125.959 191.356 127.949 187.89 127.562 186.409C127.454 185.997 127.154 185.856 126.661 185.985ZM110.74 232.358C104.416 234.017 100.244 230.979 98.223 223.245C96.9545 218.391 97.7052 212.699 100.475 206.171C103.305 199.539 107.143 193.741 111.99 188.778C116.814 183.732 121.444 180.628 125.879 179.465C127.85 178.948 129.861 179.256 131.912 180.389C134.046 181.5 135.306 182.795 135.693 184.276C136.402 186.991 135.278 190.583 132.321 195.051C129.342 199.436 125.997 203.258 122.285 206.518C118.634 209.673 116.111 211.433 114.714 211.8C113.4 212.144 112.254 211.786 111.274 210.724C110.881 210.563 110.397 210.558 109.822 210.709C109.247 210.86 108.593 212.218 107.859 214.784C107.104 217.268 106.909 219.209 107.275 220.608C107.619 221.924 108.327 222.618 109.398 222.688C115.64 221.051 121.943 217.465 128.306 211.928C134.649 206.309 143.063 197.201 153.549 184.605C154.281 183.71 155.378 182.367 156.841 180.577C158.386 178.765 159.29 177.693 159.554 177.36C160.444 177.742 160.996 178.344 161.211 179.167C161.426 179.99 161.25 180.827 160.683 181.679C157.651 186.87 153.517 192.877 148.28 199.701C143.124 206.504 136.919 213.318 129.663 220.143C122.386 226.887 116.079 230.958 110.74 232.358Z"/></clipPath><clipPath id="paint5_diamond_2_38_clip_path"><path d="M30.8331 232.213C28.9158 224.54 29.5319 215.983 32.6814 206.542C35.8914 196.997 40.6432 188.146 46.9368 179.99C53.2088 171.752 60.6442 164.44 69.243 158.053C77.8202 151.584 86.3385 147.24 94.7979 145.022C99.6436 143.751 104.388 143.606 109.032 144.586C113.737 145.462 116.627 147.957 117.702 152.071C118.755 156.102 117.565 161.118 114.13 167.117C110.756 173.013 106.266 178.498 100.659 183.573C95.113 188.544 89.9171 191.665 85.0714 192.935C82.8539 193.517 80.393 193.503 77.6888 192.893C74.9845 192.284 73.3422 190.868 72.7617 188.647C72.4392 187.413 73.1453 186.085 74.8799 184.663C81.13 180.035 85.6768 175.941 88.5205 172.382C89.0446 171.366 89.471 170.815 89.7995 170.728C90.2102 170.621 90.5015 170.896 90.6735 171.554C90.9745 172.706 89.933 174.43 87.549 176.725C85.9649 178.723 85.1943 179.804 85.2373 179.969C85.2803 180.133 85.3429 180.205 85.425 180.183C87.0676 179.752 91.2498 175.271 97.9717 166.739C104.694 158.207 107.818 153.036 107.345 151.226C107.044 150.074 105.785 149.789 103.567 150.371C95.6828 152.438 88.1696 156.43 81.0277 162.347C73.8643 168.182 67.8623 174.767 63.0217 182.102C58.2417 189.333 54.1334 196.784 50.6968 204.455C47.2386 212.043 44.8639 218.908 43.5725 225.048C42.2597 231.107 41.9902 235.617 42.7642 238.579C43.2372 240.389 44.336 241.068 46.0607 240.616C47.5391 240.228 50.3238 238.795 54.4148 236.315C58.5058 233.836 64.224 229.523 71.5693 223.377C78.9967 217.21 85.8914 210.347 92.2533 202.788C92.6992 202.144 93.0043 201.8 93.1686 201.757C93.415 201.693 93.5812 201.825 93.6671 202.154C93.7531 202.483 93.3795 204.075 92.5461 206.931C91.7948 209.766 90.4031 213.34 88.3709 217.653C86.4208 221.944 84.0385 226.261 81.2241 230.604C78.3883 234.864 74.6539 238.876 70.021 242.64C65.4703 246.383 60.9775 248.836 56.5425 249.999C52.1896 251.141 48.5359 251.263 45.5814 250.368C42.709 249.451 40.3969 247.991 38.6451 245.989C35.0594 242.006 32.7007 238.185 31.569 234.526L30.8331 232.213Z"/></clipPath><linearGradient id="paint0_diamond_2_38" x1="0" y1="0" x2="500" y2="500" gradientUnits="userSpaceOnUse">
<stop stop-color="white"/>
<stop offset="1" stop-color="#ADADAD"/>
</linearGradient>
<linearGradient id="paint1_diamond_2_38" x1="0" y1="0" x2="500" y2="500" gradientUnits="userSpaceOnUse">
<stop stop-color="white"/>
<stop offset="1" stop-color="#ADADAD"/>
</linearGradient>
<linearGradient id="paint2_diamond_2_38" x1="0" y1="0" x2="500" y2="500" gradientUnits="userSpaceOnUse">
<stop stop-color="white"/>
<stop offset="1" stop-color="#ADADAD"/>
</linearGradient>
<linearGradient id="paint3_diamond_2_38" x1="0" y1="0" x2="500" y2="500" gradientUnits="userSpaceOnUse">
<stop stop-color="white"/>
<stop offset="1" stop-color="#ADADAD"/>
</linearGradient>
<linearGradient id="paint4_diamond_2_38" x1="0" y1="0" x2="500" y2="500" gradientUnits="userSpaceOnUse">
<stop stop-color="white"/>
<stop offset="1" stop-color="#ADADAD"/>
</linearGradient>
<linearGradient id="paint5_diamond_2_38" x1="0" y1="0" x2="500" y2="500" gradientUnits="userSpaceOnUse">
<stop stop-color="white"/>
<stop offset="1" stop-color="#ADADAD"/>
</linearGradient>
</defs>
</svg>
